{
	"asset":{
		"generator":"Khronos glTF Blender I/O v4.3.47",
		"version":"2.0"
	},
	"scene":0,
	"scenes":[
		{
			"name":"Scene",
			"nodes":[
				0,
				1,
				2,
				3,
				4,
				5,
				6,
				7,
				8,
				9,
				10,
				11,
				12,
				13,
				14,
				15,
				16,
				17
			]
		}
	],
	"nodes":[
		{
			"mesh":0,
			"name":"Vomer"
		},
		{
			"mesh":1,
			"name":"Sphenoid"
		},
		{
			"mesh":2,
			"name":"R Zygomatic"
		},
		{
			"mesh":3,
			"name":"R Temporal"
		},
		{
			"mesh":4,
			"name":"Premaxilla"
		},
		{
			"mesh":5,
			"name":"Parietals"
		},
		{
			"mesh":6,
			"name":"Palatines"
		},
		{
			"mesh":7,
			"name":"Occipital"
		},
		{
			"mesh":8,
			"name":"Nasals"
		},
		{
			"mesh":9,
			"name":"Maxillae"
		},
		{
			"mesh":10,
			"name":"Mandible"
		},
		{
			"mesh":11,
			"name":"Lacrimals"
		},
		{
			"mesh":12,
			"name":"L Zygomatic"
		},
		{
			"mesh":13,
			"name":"L Temporal"
		},
		{
			"mesh":14,
			"name":"Inferior nasal conchae"
		},
		{
			"mesh":15,
			"name":"Frontal"
		},
		{
			"mesh":16,
			"name":"Ethmoid"
		},
		{
			"mesh":17,
			"name":"Dentition"
		}
	],
	"meshes":[
		{
			"name":"Vomer",
			"primitives":[
				{
					"attributes":{
						"POSITION":0,
						"NORMAL":1
					},
					"indices":2
				}
			]
		},
		{
			"name":"Sphenoid",
			"primitives":[
				{
					"attributes":{
						"POSITION":3,
						"NORMAL":4
					},
					"indices":5
				}
			]
		},
		{
			"name":"R Zygomatic",
			"primitives":[
				{
					"attributes":{
						"POSITION":6,
						"NORMAL":7
					},
					"indices":8
				}
			]
		},
		{
			"name":"R Temporal",
			"primitives":[
				{
					"attributes":{
						"POSITION":9,
						"NORMAL":10
					},
					"indices":11
				}
			]
		},
		{
			"name":"Premaxilla",
			"primitives":[
				{
					"attributes":{
						"POSITION":12,
						"NORMAL":13
					},
					"indices":14
				}
			]
		},
		{
			"name":"Parietals",
			"primitives":[
				{
					"attributes":{
						"POSITION":15,
						"NORMAL":16
					},
					"indices":17
				}
			]
		},
		{
			"name":"Palatines",
			"primitives":[
				{
					"attributes":{
						"POSITION":18,
						"NORMAL":19
					},
					"indices":20
				}
			]
		},
		{
			"name":"Occipital",
			"primitives":[
				{
					"attributes":{
						"POSITION":21,
						"NORMAL":22
					},
					"indices":23
				}
			]
		},
		{
			"name":"Nasals",
			"primitives":[
				{
					"attributes":{
						"POSITION":24,
						"NORMAL":25
					},
					"indices":26
				}
			]
		},
		{
			"name":"Maxillae",
			"primitives":[
				{
					"attributes":{
						"POSITION":27,
						"NORMAL":28
					},
					"indices":29
				}
			]
		},
		{
			"name":"Mandible",
			"primitives":[
				{
					"attributes":{
						"POSITION":30,
						"NORMAL":31
					},
					"indices":32
				}
			]
		},
		{
			"name":"Lacrimals",
			"primitives":[
				{
					"attributes":{
						"POSITION":33,
						"NORMAL":34
					},
					"indices":35
				}
			]
		},
		{
			"name":"L Zygomatic",
			"primitives":[
				{
					"attributes":{
						"POSITION":36,
						"NORMAL":37
					},
					"indices":38
				}
			]
		},
		{
			"name":"L Temporal",
			"primitives":[
				{
					"attributes":{
						"POSITION":39,
						"NORMAL":40
					},
					"indices":41
				}
			]
		},
		{
			"name":"Inferior nasal conchae",
			"primitives":[
				{
					"attributes":{
						"POSITION":42,
						"NORMAL":43
					},
					"indices":44
				}
			]
		},
		{
			"name":"Frontal",
			"primitives":[
				{
					"attributes":{
						"POSITION":45,
						"NORMAL":46
					},
					"indices":47
				}
			]
		},
		{
			"name":"Ethmoid",
			"primitives":[
				{
					"attributes":{
						"POSITION":48,
						"NORMAL":49
					},
					"indices":50
				}
			]
		},
		{
			"name":"Dentition",
			"primitives":[
				{
					"attributes":{
						"POSITION":51,
						"NORMAL":52
					},
					"indices":53
				}
			]
		}
	],
	"accessors":[
		{
			"bufferView":0,
			"componentType":5126,
			"count":31067,
			"max":[
				17.48297882080078,
				15.231861114501953,
				2.973968505859375
			],
			"min":[
				2.921649932861328,
				-12.899494171142578,
				-0.4437255859375
			],
			"type":"VEC3"
		},
		{
			"bufferView":1,
			"componentType":5126,
			"count":31067,
			"type":"VEC3"
		},
		{
			"bufferView":2,
			"componentType":5123,
			"count":185244,
			"type":"SCALAR"
		},
		{
			"bufferView":3,
			"componentType":5126,
			"count":223427,
			"max":[
				9.655754089355469,
				4.8053436279296875,
				11.414176940917969
			],
			"min":[
				-2.9027328491210938,
				-6.220890045166016,
				-8.936262130737305
			],
			"type":"VEC3"
		},
		{
			"bufferView":4,
			"componentType":5126,
			"count":223427,
			"type":"VEC3"
		},
		{
			"bufferView":5,
			"componentType":5125,
			"count":1335144,
			"type":"SCALAR"
		},
		{
			"bufferView":6,
			"componentType":5126,
			"count":46257,
			"max":[
				12.411188125610352,
				3.346508026123047,
				12.919944763183594
			],
			"min":[
				3.5430450439453125,
				-10.397916793823242,
				-8.347599983215332
			],
			"type":"VEC3"
		},
		{
			"bufferView":7,
			"componentType":5126,
			"count":46257,
			"type":"VEC3"
		},
		{
			"bufferView":8,
			"componentType":5123,
			"count":275736,
			"type":"SCALAR"
		},
		{
			"bufferView":9,
			"componentType":5126,
			"count":303637,
			"max":[
				7.077718734741211,
				11.85783576965332,
				12.442243576049805
			],
			"min":[
				-13.211997985839844,
				-10.007122039794922,
				2.904520034790039
			],
			"type":"VEC3"
		},
		{
			"bufferView":10,
			"componentType":5126,
			"count":303637,
			"type":"VEC3"
		},
		{
			"bufferView":11,
			"componentType":5125,
			"count":1808352,
			"type":"SCALAR"
		},
		{
			"bufferView":12,
			"componentType":5126,
			"count":81452,
			"max":[
				19.19847297668457,
				4.7357025146484375,
				5.415449142456055
			],
			"min":[
				6.493671417236328,
				-8.455842971801758,
				-3.0213985443115234
			],
			"type":"VEC3"
		},
		{
			"bufferView":13,
			"componentType":5126,
			"count":81452,
			"type":"VEC3"
		},
		{
			"bufferView":14,
			"componentType":5125,
			"count":481608,
			"type":"SCALAR"
		},
		{
			"bufferView":15,
			"componentType":5126,
			"count":890461,
			"max":[
				4.671117782592773,
				15.882317543029785,
				13.938577651977539
			],
			"min":[
				-23.13387680053711,
				-2.826854705810547,
				-11.005891799926758
			],
			"type":"VEC3"
		},
		{
			"bufferView":16,
			"componentType":5126,
			"count":890461,
			"type":"VEC3"
		},
		{
			"bufferView":17,
			"componentType":5125,
			"count":5340924,
			"type":"SCALAR"
		},
		{
			"bufferView":18,
			"componentType":5126,
			"count":56833,
			"max":[
				13.06260871887207,
				-1.2046852111816406,
				5.803657531738281
			],
			"min":[
				2.4752197265625,
				-11.393732070922852,
				-3.3618412017822266
			],
			"type":"VEC3"
		},
		{
			"bufferView":19,
			"componentType":5126,
			"count":56833,
			"type":"VEC3"
		},
		{
			"bufferView":20,
			"componentType":5123,
			"count":340584,
			"type":"SCALAR"
		},
		{
			"bufferView":21,
			"componentType":5126,
			"count":207965,
			"max":[
				-0.9491233825683594,
				2.1710329055786133,
				9.763914108276367
			],
			"min":[
				-22.768753051757812,
				-9.006492614746094,
				-7.460870742797852
			],
			"type":"VEC3"
		},
		{
			"bufferView":22,
			"componentType":5126,
			"count":207965,
			"type":"VEC3"
		},
		{
			"bufferView":23,
			"componentType":5125,
			"count":1239792,
			"type":"SCALAR"
		},
		{
			"bufferView":24,
			"componentType":5126,
			"count":23989,
			"max":[
				19.540658950805664,
				5.623006820678711,
				3.202157974243164
			],
			"min":[
				15.480224609375,
				-0.09776782989501953,
				-0.6614341735839844
			],
			"type":"VEC3"
		},
		{
			"bufferView":25,
			"componentType":5126,
			"count":23989,
			"type":"VEC3"
		},
		{
			"bufferView":26,
			"componentType":5123,
			"count":143328,
			"type":"SCALAR"
		},
		{
			"bufferView":27,
			"componentType":5126,
			"count":362912,
			"max":[
				18.268218994140625,
				4.021537780761719,
				11.191328048706055
			],
			"min":[
				5.691352844238281,
				-9.953615188598633,
				-8.902912139892578
			],
			"type":"VEC3"
		},
		{
			"bufferView":28,
			"componentType":5126,
			"count":362912,
			"type":"VEC3"
		},
		{
			"bufferView":29,
			"componentType":5125,
			"count":2165256,
			"type":"SCALAR"
		},
		{
			"bufferView":30,
			"componentType":5126,
			"count":372763,
			"max":[
				17.451648712158203,
				-2.379261016845703,
				11.83480453491211
			],
			"min":[
				-0.9286842346191406,
				-12.80865478515625,
				-9.437685012817383
			],
			"type":"VEC3"
		},
		{
			"bufferView":31,
			"componentType":5126,
			"count":372763,
			"type":"VEC3"
		},
		{
			"bufferView":32,
			"componentType":5125,
			"count":2210448,
			"type":"SCALAR"
		},
		{
			"bufferView":33,
			"componentType":5126,
			"count":16946,
			"max":[
				16.10289192199707,
				3.5721206665039062,
				5.562965393066406
			],
			"min":[
				14.464742660522461,
				-1.832571029663086,
				-2.7885284423828125
			],
			"type":"VEC3"
		},
		{
			"bufferView":34,
			"componentType":5126,
			"count":16946,
			"type":"VEC3"
		},
		{
			"bufferView":35,
			"componentType":5123,
			"count":101664,
			"type":"SCALAR"
		},
		{
			"bufferView":36,
			"componentType":5126,
			"count":44810,
			"max":[
				13.215644836425781,
				3.6186084747314453,
				-7.249834060668945
			],
			"min":[
				3.545257568359375,
				-5.514507293701172,
				-10.742692947387695
			],
			"type":"VEC3"
		},
		{
			"bufferView":37,
			"componentType":5126,
			"count":44810,
			"type":"VEC3"
		},
		{
			"bufferView":38,
			"componentType":5123,
			"count":267972,
			"type":"SCALAR"
		},
		{
			"bufferView":39,
			"componentType":5126,
			"count":304977,
			"max":[
				5.933895111083984,
				4.165838241577148,
				-0.4282417297363281
			],
			"min":[
				-11.776695251464844,
				-9.566230773925781,
				-10.147806167602539
			],
			"type":"VEC3"
		},
		{
			"bufferView":40,
			"componentType":5126,
			"count":304977,
			"type":"VEC3"
		},
		{
			"bufferView":41,
			"componentType":5125,
			"count":1822128,
			"type":"SCALAR"
		},
		{
			"bufferView":42,
			"componentType":5126,
			"count":41950,
			"max":[
				17.485986709594727,
				-0.86346435546875,
				4.983257293701172
			],
			"min":[
				10.001108169555664,
				-4.03245735168457,
				-1.9912643432617188
			],
			"type":"VEC3"
		},
		{
			"bufferView":43,
			"componentType":5126,
			"count":41950,
			"type":"VEC3"
		},
		{
			"bufferView":44,
			"componentType":5123,
			"count":252612,
			"type":"SCALAR"
		},
		{
			"bufferView":45,
			"componentType":5126,
			"count":425018,
			"max":[
				16.101896286010742,
				15.752279281616211,
				12.834425926208496
			],
			"min":[
				-1.8585548400878906,
				-3.7825489044189453,
				-9.605325698852539
			],
			"type":"VEC3"
		},
		{
			"bufferView":46,
			"componentType":5126,
			"count":425018,
			"type":"VEC3"
		},
		{
			"bufferView":47,
			"componentType":5125,
			"count":2547720,
			"type":"SCALAR"
		},
		{
			"bufferView":48,
			"componentType":5126,
			"count":111208,
			"max":[
				17.789453506469727,
				4.049886703491211,
				4.928525924682617
			],
			"min":[
				4.223392486572266,
				-2.668489456176758,
				-8.309032440185547
			],
			"type":"VEC3"
		},
		{
			"bufferView":49,
			"componentType":5126,
			"count":111208,
			"type":"VEC3"
		},
		{
			"bufferView":50,
			"componentType":5125,
			"count":666024,
			"type":"SCALAR"
		},
		{
			"bufferView":51,
			"componentType":5126,
			"count":221649,
			"max":[
				18.795225143432617,
				-2.7157249450683594,
				8.82364273071289
			],
			"min":[
				5.936582565307617,
				-11.121879577636719,
				-6.443838119506836
			],
			"type":"VEC3"
		},
		{
			"bufferView":52,
			"componentType":5126,
			"count":221649,
			"type":"VEC3"
		},
		{
			"bufferView":53,
			"componentType":5125,
			"count":1320936,
			"type":"SCALAR"
		}
	],
	"bufferViews":[
		{
			"buffer":0,
			"byteLength":372804,
			"byteOffset":0,
			"target":34962
		},
		{
			"buffer":0,
			"byteLength":372804,
			"byteOffset":372804,
			"target":34962
		},
		{
			"buffer":0,
			"byteLength":370488,
			"byteOffset":745608,
			"target":34963
		},
		{
			"buffer":0,
			"byteLength":2681124,
			"byteOffset":1116096,
			"target":34962
		},
		{
			"buffer":0,
			"byteLength":2681124,
			"byteOffset":3797220,
			"target":34962
		},
		{
			"buffer":0,
			"byteLength":5340576,
			"byteOffset":6478344,
			"target":34963
		},
		{
			"buffer":0,
			"byteLength":555084,
			"byteOffset":11818920,
			"target":34962
		},
		{
			"buffer":0,
			"byteLength":555084,
			"byteOffset":12374004,
			"target":34962
		},
		{
			"buffer":0,
			"byteLength":551472,
			"byteOffset":12929088,
			"target":34963
		},
		{
			"buffer":0,
			"byteLength":3643644,
			"byteOffset":13480560,
			"target":34962
		},
		{
			"buffer":0,
			"byteLength":3643644,
			"byteOffset":17124204,
			"target":34962
		},
		{
			"buffer":0,
			"byteLength":7233408,
			"byteOffset":20767848,
			"target":34963
		},
		{
			"buffer":0,
			"byteLength":977424,
			"byteOffset":28001256,
			"target":34962
		},
		{
			"buffer":0,
			"byteLength":977424,
			"byteOffset":28978680,
			"target":34962
		},
		{
			"buffer":0,
			"byteLength":1926432,
			"byteOffset":29956104,
			"target":34963
		},
		{
			"buffer":0,
			"byteLength":10685532,
			"byteOffset":31882536,
			"target":34962
		},
		{
			"buffer":0,
			"byteLength":10685532,
			"byteOffset":42568068,
			"target":34962
		},
		{
			"buffer":0,
			"byteLength":21363696,
			"byteOffset":53253600,
			"target":34963
		},
		{
			"buffer":0,
			"byteLength":681996,
			"byteOffset":74617296,
			"target":34962
		},
		{
			"buffer":0,
			"byteLength":681996,
			"byteOffset":75299292,
			"target":34962
		},
		{
			"buffer":0,
			"byteLength":681168,
			"byteOffset":75981288,
			"target":34963
		},
		{
			"buffer":0,
			"byteLength":2495580,
			"byteOffset":76662456,
			"target":34962
		},
		{
			"buffer":0,
			"byteLength":2495580,
			"byteOffset":79158036,
			"target":34962
		},
		{
			"buffer":0,
			"byteLength":4959168,
			"byteOffset":81653616,
			"target":34963
		},
		{
			"buffer":0,
			"byteLength":287868,
			"byteOffset":86612784,
			"target":34962
		},
		{
			"buffer":0,
			"byteLength":287868,
			"byteOffset":86900652,
			"target":34962
		},
		{
			"buffer":0,
			"byteLength":286656,
			"byteOffset":87188520,
			"target":34963
		},
		{
			"buffer":0,
			"byteLength":4354944,
			"byteOffset":87475176,
			"target":34962
		},
		{
			"buffer":0,
			"byteLength":4354944,
			"byteOffset":91830120,
			"target":34962
		},
		{
			"buffer":0,
			"byteLength":8661024,
			"byteOffset":96185064,
			"target":34963
		},
		{
			"buffer":0,
			"byteLength":4473156,
			"byteOffset":104846088,
			"target":34962
		},
		{
			"buffer":0,
			"byteLength":4473156,
			"byteOffset":109319244,
			"target":34962
		},
		{
			"buffer":0,
			"byteLength":8841792,
			"byteOffset":113792400,
			"target":34963
		},
		{
			"buffer":0,
			"byteLength":203352,
			"byteOffset":122634192,
			"target":34962
		},
		{
			"buffer":0,
			"byteLength":203352,
			"byteOffset":122837544,
			"target":34962
		},
		{
			"buffer":0,
			"byteLength":203328,
			"byteOffset":123040896,
			"target":34963
		},
		{
			"buffer":0,
			"byteLength":537720,
			"byteOffset":123244224,
			"target":34962
		},
		{
			"buffer":0,
			"byteLength":537720,
			"byteOffset":123781944,
			"target":34962
		},
		{
			"buffer":0,
			"byteLength":535944,
			"byteOffset":124319664,
			"target":34963
		},
		{
			"buffer":0,
			"byteLength":3659724,
			"byteOffset":124855608,
			"target":34962
		},
		{
			"buffer":0,
			"byteLength":3659724,
			"byteOffset":128515332,
			"target":34962
		},
		{
			"buffer":0,
			"byteLength":7288512,
			"byteOffset":132175056,
			"target":34963
		},
		{
			"buffer":0,
			"byteLength":503400,
			"byteOffset":139463568,
			"target":34962
		},
		{
			"buffer":0,
			"byteLength":503400,
			"byteOffset":139966968,
			"target":34962
		},
		{
			"buffer":0,
			"byteLength":505224,
			"byteOffset":140470368,
			"target":34963
		},
		{
			"buffer":0,
			"byteLength":5100216,
			"byteOffset":140975592,
			"target":34962
		},
		{
			"buffer":0,
			"byteLength":5100216,
			"byteOffset":146075808,
			"target":34962
		},
		{
			"buffer":0,
			"byteLength":10190880,
			"byteOffset":151176024,
			"target":34963
		},
		{
			"buffer":0,
			"byteLength":1334496,
			"byteOffset":161366904,
			"target":34962
		},
		{
			"buffer":0,
			"byteLength":1334496,
			"byteOffset":162701400,
			"target":34962
		},
		{
			"buffer":0,
			"byteLength":2664096,
			"byteOffset":164035896,
			"target":34963
		},
		{
			"buffer":0,
			"byteLength":2659788,
			"byteOffset":166699992,
			"target":34962
		},
		{
			"buffer":0,
			"byteLength":2659788,
			"byteOffset":169359780,
			"target":34962
		},
		{
			"buffer":0,
			"byteLength":5283744,
			"byteOffset":172019568,
			"target":34963
		}
	],
	"buffers":[
		{
			"byteLength":177303312,
			"uri":"skull.bin"
		}
	]
}
